<svg width="119" height="146" viewBox="0 0 119 146" fill="none" xmlns="http://www.w3.org/2000/svg">
<rect x="0.5" y="0.5" width="118" height="145" rx="7.5" fill="white"/>
<rect x="0.5" y="0.5" width="118" height="145" rx="7.5" stroke="#E6E6E6"/>
<g clip-path="url(#clip0_76_13684)">
<path d="M118.5 0H0.652344V118H118.5V0Z" fill="white"/>
<mask id="mask0_76_13684" style="mask-type:luminance" maskUnits="userSpaceOnUse" x="8" y="7" width="103" height="104">
<path d="M12.3465 40.5488H8.24609V44.6492H12.3465V40.5488Z" fill="white"/>
<path d="M12.3465 44.6504H8.24609V48.7508H12.3465V44.6504Z" fill="white"/>
<path d="M12.3465 48.75H8.24609V52.8504H12.3465V48.75Z" fill="white"/>
<path d="M12.3465 52.8516H8.24609V56.9519H12.3465V52.8516Z" fill="white"/>
<path d="M12.3465 61.0508H8.24609V65.1512H12.3465V61.0508Z" fill="white"/>
<path d="M12.3465 73.3516H8.24609V77.4519H12.3465V73.3516Z" fill="white"/>
<path d="M16.4461 52.8516H12.3457V56.9519H16.4461V52.8516Z" fill="white"/>
<path d="M16.4461 56.9512H12.3457V61.0516H16.4461V56.9512Z" fill="white"/>
<path d="M16.4461 61.0508H12.3457V65.1512H16.4461V61.0508Z" fill="white"/>
<path d="M16.4461 73.3516H12.3457V77.4519H16.4461V73.3516Z" fill="white"/>
<path d="M20.5477 44.6484H16.4473V48.7488H20.5477V44.6484Z" fill="white"/>
<path d="M20.5477 52.8516H16.4473V56.9519H20.5477V52.8516Z" fill="white"/>
<path d="M20.5477 61.0508H16.4473V65.1512H20.5477V61.0508Z" fill="white"/>
<path d="M20.5477 65.1523H16.4473V69.2527H20.5477V65.1523Z" fill="white"/>
<path d="M20.5477 69.252H16.4473V73.3523H20.5477V69.252Z" fill="white"/>
<path d="M20.5477 73.3516H16.4473V77.4519H20.5477V73.3516Z" fill="white"/>
<path d="M24.6473 48.75H20.5469V52.8504H24.6473V48.75Z" fill="white"/>
<path d="M24.6473 52.8516H20.5469V56.9519H24.6473V52.8516Z" fill="white"/>
<path d="M24.6473 69.252H20.5469V73.3523H24.6473V69.252Z" fill="white"/>
<path d="M24.6473 73.3516H20.5469V77.4519H24.6473V73.3516Z" fill="white"/>
<path d="M28.7488 48.75H24.6484V52.8504H28.7488V48.75Z" fill="white"/>
<path d="M28.7469 52.8516H24.6465V56.9519H28.7469V52.8516Z" fill="white"/>
<path d="M28.7469 56.9512H24.6465V61.0516H28.7469V56.9512Z" fill="white"/>
<path d="M28.7469 61.0508H24.6465V65.1512H28.7469V61.0508Z" fill="white"/>
<path d="M28.7488 69.252H24.6484V73.3523H28.7488V69.252Z" fill="white"/>
<path d="M28.7469 73.3516H24.6465V77.4519H28.7469V73.3516Z" fill="white"/>
<path d="M32.8484 44.6504H28.748V48.7508H32.8484V44.6504Z" fill="white"/>
<path d="M32.8484 52.8516H28.748V56.9519H32.8484V52.8516Z" fill="white"/>
<path d="M36.95 40.5488H32.8496V44.6492H36.95V40.5488Z" fill="white"/>
<path d="M36.948 48.75H32.8477V52.8504H36.948V48.75Z" fill="white"/>
<path d="M36.95 56.9512H32.8496V61.0516H36.95V56.9512Z" fill="white"/>
<path d="M36.948 65.1523H32.8477V69.2527H36.948V65.1523Z" fill="white"/>
<path d="M36.95 73.3516H32.8496V77.4519H36.95V73.3516Z" fill="white"/>
<path d="M41.0496 40.5488H36.9492V44.6492H41.0496V40.5488Z" fill="white"/>
<path d="M41.0496 44.6484H36.9492V48.7488H41.0496V44.6484Z" fill="white"/>
<path d="M41.0496 56.9512H36.9492V61.0516H41.0496V56.9512Z" fill="white"/>
<path d="M41.0496 61.0508H36.9492V65.1512H41.0496V61.0508Z" fill="white"/>
<path d="M41.0496 69.252H36.9492V73.3523H41.0496V69.252Z" fill="white"/>
<path d="M41.0496 73.3516H36.9492V77.4519H41.0496V73.3516Z" fill="white"/>
<path d="M45.1492 7.74609H41.0488V11.8465H45.1492V7.74609Z" fill="white"/>
<path d="M45.1492 11.8477H41.0488V15.948H45.1492V11.8477Z" fill="white"/>
<path d="M45.1492 20.0469H41.0488V24.1473H45.1492V20.0469Z" fill="white"/>
<path d="M45.1492 24.1484H41.0488V28.2488H45.1492V24.1484Z" fill="white"/>
<path d="M45.1492 32.3477H41.0488V36.448H45.1492V32.3477Z" fill="white"/>
<path d="M45.1492 44.6484H41.0488V48.7488H45.1492V44.6484Z" fill="white"/>
<path d="M45.1492 56.9512H41.0488V61.0516H45.1492V56.9512Z" fill="white"/>
<path d="M45.1492 65.1523H41.0488V69.2527H45.1492V65.1523Z" fill="white"/>
<path d="M45.1492 73.3516H41.0488V77.4519H45.1492V73.3516Z" fill="white"/>
<path d="M45.1492 81.5527H41.0488V85.6531H45.1492V81.5527Z" fill="white"/>
<path d="M45.1492 106.156H41.0488V110.257H45.1492V106.156Z" fill="white"/>
<path d="M49.2508 11.8477H45.1504V15.948H49.2508V11.8477Z" fill="white"/>
<path d="M49.2508 20.0469H45.1504V24.1473H49.2508V20.0469Z" fill="white"/>
<path d="M49.2508 24.1484H45.1504V28.2488H49.2508V24.1484Z" fill="white"/>
<path d="M49.2508 40.5488H45.1504V44.6492H49.2508V40.5488Z" fill="white"/>
<path d="M49.2508 48.75H45.1504V52.8504H49.2508V48.75Z" fill="white"/>
<path d="M49.2508 69.252H45.1504V73.3523H49.2508V69.252Z" fill="white"/>
<path d="M49.2508 73.3516H45.1504V77.4519H49.2508V73.3516Z" fill="white"/>
<path d="M49.2508 77.4531H45.1504V81.5535H49.2508V77.4531Z" fill="white"/>
<path d="M49.2508 85.6523H45.1504V89.7527H49.2508V85.6523Z" fill="white"/>
<path d="M49.2508 89.7539H45.1504V93.8543H49.2508V89.7539Z" fill="white"/>
<path d="M49.2508 93.8555H45.1504V97.9559H49.2508V93.8555Z" fill="white"/>
<path d="M49.2508 97.9531H45.1504V102.054H49.2508V97.9531Z" fill="white"/>
<path d="M49.2508 102.055H45.1504V106.155H49.2508V102.055Z" fill="white"/>
<path d="M53.3503 7.74609H49.2499V11.8465H53.3503V7.74609Z" fill="white"/>
<path d="M53.3503 32.3477H49.2499V36.448H53.3503V32.3477Z" fill="white"/>
<path d="M53.3504 36.4492H49.25V40.5496H53.3504V36.4492Z" fill="white"/>
<path d="M53.3504 40.5488H49.25V44.6492H53.3504V40.5488Z" fill="white"/>
<path d="M53.3503 44.6504H49.2499V48.7508H53.3503V44.6504Z" fill="white"/>
<path d="M53.3504 56.9512H49.25V61.0516H53.3504V56.9512Z" fill="white"/>
<path d="M53.3504 61.0508H49.25V65.1512H53.3504V61.0508Z" fill="white"/>
<path d="M53.3503 65.1523H49.2499V69.2527H53.3503V65.1523Z" fill="white"/>
<path d="M53.3503 69.252H49.2499V73.3523H53.3503V69.252Z" fill="white"/>
<path d="M53.3504 73.3516H49.25V77.4519H53.3504V73.3516Z" fill="white"/>
<path d="M53.3504 77.4531H49.25V81.5535H53.3504V77.4531Z" fill="white"/>
<path d="M53.3504 81.5527H49.25V85.6531H53.3504V81.5527Z" fill="white"/>
<path d="M53.3503 85.6543H49.2499V89.7547H53.3503V85.6543Z" fill="white"/>
<path d="M53.3503 89.7539H49.2499V93.8543H53.3503V89.7539Z" fill="white"/>
<path d="M53.3504 93.8555H49.25V97.9559H53.3504V93.8555Z" fill="white"/>
<path d="M53.3503 106.156H49.2499V110.257H53.3503V106.156Z" fill="white"/>
<path d="M57.45 7.74609H53.3496V11.8465H57.45V7.74609Z" fill="white"/>
<path d="M57.45 20.0469H53.3496V24.1473H57.45V20.0469Z" fill="white"/>
<path d="M57.45 24.1484H53.3496V28.2488H57.45V24.1484Z" fill="white"/>
<path d="M57.45 36.4492H53.3496V40.5496H57.45V36.4492Z" fill="white"/>
<path d="M57.45 40.5488H53.3496V44.6492H57.45V40.5488Z" fill="white"/>
<path d="M57.45 69.252H53.3496V73.3523H57.45V69.252Z" fill="white"/>
<path d="M57.45 77.4531H53.3496V81.5535H57.45V77.4531Z" fill="white"/>
<path d="M57.45 93.8555H53.3496V97.9559H57.45V93.8555Z" fill="white"/>
<path d="M57.45 97.9531H53.3496V102.054H57.45V97.9531Z" fill="white"/>
<path d="M57.45 102.055H53.3496V106.155H57.45V102.055Z" fill="white"/>
<path d="M57.45 106.156H53.3496V110.257H57.45V106.156Z" fill="white"/>
<path d="M61.5516 7.74609H57.4512V11.8465H61.5516V7.74609Z" fill="white"/>
<path d="M61.5516 24.1484H57.4512V28.2488H61.5516V24.1484Z" fill="white"/>
<path d="M61.5516 32.3477H57.4512V36.448H61.5516V32.3477Z" fill="white"/>
<path d="M61.5516 44.6484H57.4512V48.7488H61.5516V44.6484Z" fill="white"/>
<path d="M61.5516 48.75H57.4512V52.8504H61.5516V48.75Z" fill="white"/>
<path d="M61.5516 56.9512H57.4512V61.0516H61.5516V56.9512Z" fill="white"/>
<path d="M61.5516 61.0508H57.4512V65.1512H61.5516V61.0508Z" fill="white"/>
<path d="M61.5516 73.3516H57.4512V77.4519H61.5516V73.3516Z" fill="white"/>
<path d="M61.5516 81.5527H57.4512V85.6531H61.5516V81.5527Z" fill="white"/>
<path d="M61.5516 106.156H57.4512V110.257H61.5516V106.156Z" fill="white"/>
<path d="M65.6512 7.74609H61.5508V11.8465H65.6512V7.74609Z" fill="white"/>
<path d="M65.6512 15.9473H61.5508V20.0477H65.6512V15.9473Z" fill="white"/>
<path d="M65.6512 20.0469H61.5508V24.1473H65.6512V20.0469Z" fill="white"/>
<path d="M65.6512 28.248H61.5508V32.3484H65.6512V28.248Z" fill="white"/>
<path d="M65.6512 44.6484H61.5508V48.7488H65.6512V44.6484Z" fill="white"/>
<path d="M65.6512 48.75H61.5508V52.8504H65.6512V48.75Z" fill="white"/>
<path d="M65.6512 56.9512H61.5508V61.0516H65.6512V56.9512Z" fill="white"/>
<path d="M65.6512 65.1523H61.5508V69.2527H65.6512V65.1523Z" fill="white"/>
<path d="M65.6512 69.252H61.5508V73.3523H65.6512V69.252Z" fill="white"/>
<path d="M65.6512 73.3516H61.5508V77.4519H65.6512V73.3516Z" fill="white"/>
<path d="M65.6512 89.7539H61.5508V93.8543H65.6512V89.7539Z" fill="white"/>
<path d="M65.6512 102.055H61.5508V106.155H65.6512V102.055Z" fill="white"/>
<path d="M69.7527 7.74609H65.6523V11.8465H69.7527V7.74609Z" fill="white"/>
<path d="M69.7527 11.8477H65.6523V15.948H69.7527V11.8477Z" fill="white"/>
<path d="M69.7508 15.9473H65.6504V20.0477H69.7508V15.9473Z" fill="white"/>
<path d="M69.7527 28.248H65.6523V32.3484H69.7527V28.248Z" fill="white"/>
<path d="M69.7527 32.3477H65.6523V36.448H69.7527V32.3477Z" fill="white"/>
<path d="M69.7527 65.1523H65.6523V69.2527H69.7527V65.1523Z" fill="white"/>
<path d="M69.7527 69.252H65.6523V73.3523H69.7527V69.252Z" fill="white"/>
<path d="M69.7508 77.4531H65.6504V81.5535H69.7508V77.4531Z" fill="white"/>
<path d="M69.7508 81.5527H65.6504V85.6531H69.7508V81.5527Z" fill="white"/>
<path d="M69.7527 89.7539H65.6523V93.8543H69.7527V89.7539Z" fill="white"/>
<path d="M69.7508 93.8555H65.6504V97.9559H69.7508V93.8555Z" fill="white"/>
<path d="M69.7508 97.9531H65.6504V102.054H69.7508V97.9531Z" fill="white"/>
<path d="M69.7508 102.055H65.6504V106.155H69.7508V102.055Z" fill="white"/>
<path d="M69.7527 106.156H65.6523V110.257H69.7527V106.156Z" fill="white"/>
<path d="M73.8523 7.74609H69.7519V11.8465H73.8523V7.74609Z" fill="white"/>
<path d="M73.8523 15.9473H69.752V20.0477H73.8523V15.9473Z" fill="white"/>
<path d="M73.8523 28.248H69.7519V32.3484H73.8523V28.248Z" fill="white"/>
<path d="M73.8523 48.75H69.7519V52.8504H73.8523V48.75Z" fill="white"/>
<path d="M73.8523 52.8516H69.752V56.9519H73.8523V52.8516Z" fill="white"/>
<path d="M73.8523 56.9512H69.752V61.0516H73.8523V56.9512Z" fill="white"/>
<path d="M73.8523 73.3516H69.752V77.4519H73.8523V73.3516Z" fill="white"/>
<path d="M73.8523 85.6543H69.7519V89.7547H73.8523V85.6543Z" fill="white"/>
<path d="M73.8523 93.8555H69.752V97.9559H73.8523V93.8555Z" fill="white"/>
<path d="M73.8523 97.9531H69.752V102.054H73.8523V97.9531Z" fill="white"/>
<path d="M73.8523 106.156H69.7519V110.257H73.8523V106.156Z" fill="white"/>
<path d="M77.9519 7.74609H73.8516V11.8465H77.9519V7.74609Z" fill="white"/>
<path d="M77.9539 15.9473H73.8535V20.0477H77.9539V15.9473Z" fill="white"/>
<path d="M77.9519 28.248H73.8516V32.3484H77.9519V28.248Z" fill="white"/>
<path d="M77.9519 32.3477H73.8516V36.448H77.9519V32.3477Z" fill="white"/>
<path d="M77.9539 40.5488H73.8535V44.6492H77.9539V40.5488Z" fill="white"/>
<path d="M77.9519 48.75H73.8516V52.8504H77.9519V48.75Z" fill="white"/>
<path d="M77.9539 52.8516H73.8535V56.9519H77.9539V52.8516Z" fill="white"/>
<path d="M77.9539 61.0508H73.8535V65.1512H77.9539V61.0508Z" fill="white"/>
<path d="M77.9539 73.3516H73.8535V77.4519H77.9539V73.3516Z" fill="white"/>
<path d="M77.9539 77.4531H73.8535V81.5535H77.9539V77.4531Z" fill="white"/>
<path d="M77.9539 81.5527H73.8535V85.6531H77.9539V81.5527Z" fill="white"/>
<path d="M77.9519 85.6523H73.8516V89.7527H77.9519V85.6523Z" fill="white"/>
<path d="M77.9519 89.7539H73.8516V93.8543H77.9519V89.7539Z" fill="white"/>
<path d="M77.9539 97.9531H73.8535V102.054H77.9539V97.9531Z" fill="white"/>
<path d="M77.9539 102.055H73.8535V106.155H77.9539V102.055Z" fill="white"/>
<path d="M82.0535 40.5488H77.9531V44.6492H82.0535V40.5488Z" fill="white"/>
<path d="M82.0535 48.75H77.9531V52.8504H82.0535V48.75Z" fill="white"/>
<path d="M82.0535 56.9512H77.9531V61.0516H82.0535V56.9512Z" fill="white"/>
<path d="M82.0535 65.1523H77.9531V69.2527H82.0535V65.1523Z" fill="white"/>
<path d="M82.0535 73.3516H77.9531V77.4519H82.0535V73.3516Z" fill="white"/>
<path d="M82.0535 89.7539H77.9531V93.8543H82.0535V89.7539Z" fill="white"/>
<path d="M82.0535 97.9531H77.9531V102.054H82.0535V97.9531Z" fill="white"/>
<path d="M82.0535 102.055H77.9531V106.155H82.0535V102.055Z" fill="white"/>
<path d="M86.1531 44.6484H82.0527V48.7488H86.1531V44.6484Z" fill="white"/>
<path d="M86.1531 52.8516H82.0527V56.9519H86.1531V52.8516Z" fill="white"/>
<path d="M86.1531 65.1523H82.0527V69.2527H86.1531V65.1523Z" fill="white"/>
<path d="M86.1531 73.3516H82.0527V77.4519H86.1531V73.3516Z" fill="white"/>
<path d="M86.1531 81.5527H82.0527V85.6531H86.1531V81.5527Z" fill="white"/>
<path d="M86.1531 89.7539H82.0527V93.8543H86.1531V89.7539Z" fill="white"/>
<path d="M86.1531 106.156H82.0527V110.257H86.1531V106.156Z" fill="white"/>
<path d="M90.2547 48.75H86.1543V52.8504H90.2547V48.75Z" fill="white"/>
<path d="M90.2547 52.8516H86.1543V56.9519H90.2547V52.8516Z" fill="white"/>
<path d="M90.2547 56.9512H86.1543V61.0516H90.2547V56.9512Z" fill="white"/>
<path d="M90.2547 61.0508H86.1543V65.1512H90.2547V61.0508Z" fill="white"/>
<path d="M90.2547 65.1523H86.1543V69.2527H90.2547V65.1523Z" fill="white"/>
<path d="M90.2547 69.252H86.1543V73.3523H90.2547V69.252Z" fill="white"/>
<path d="M90.2547 73.3516H86.1543V77.4519H90.2547V73.3516Z" fill="white"/>
<path d="M90.2547 89.7539H86.1543V93.8543H90.2547V89.7539Z" fill="white"/>
<path d="M94.3543 40.5488H90.2539V44.6492H94.3543V40.5488Z" fill="white"/>
<path d="M94.3542 44.6504H90.2538V48.7508H94.3542V44.6504Z" fill="white"/>
<path d="M94.3543 61.0508H90.2539V65.1512H94.3543V61.0508Z" fill="white"/>
<path d="M94.3542 65.1523H90.2538V69.2527H94.3542V65.1523Z" fill="white"/>
<path d="M94.3542 69.252H90.2538V73.3523H94.3542V69.252Z" fill="white"/>
<path d="M94.3543 73.3516H90.2539V77.4519H94.3543V73.3516Z" fill="white"/>
<path d="M94.3543 77.4531H90.2539V81.5535H94.3543V77.4531Z" fill="white"/>
<path d="M94.3543 81.5527H90.2539V85.6531H94.3543V81.5527Z" fill="white"/>
<path d="M94.3542 85.6543H90.2538V89.7547H94.3542V85.6543Z" fill="white"/>
<path d="M94.3542 89.7539H90.2538V93.8543H94.3542V89.7539Z" fill="white"/>
<path d="M98.4539 40.5488H94.3535V44.6492H98.4539V40.5488Z" fill="white"/>
<path d="M98.4539 44.6484H94.3535V48.7488H98.4539V44.6484Z" fill="white"/>
<path d="M98.4539 77.4531H94.3535V81.5535H98.4539V77.4531Z" fill="white"/>
<path d="M98.4539 81.5527H94.3535V85.6531H98.4539V81.5527Z" fill="white"/>
<path d="M98.4539 102.055H94.3535V106.155H98.4539V102.055Z" fill="white"/>
<path d="M98.4539 106.156H94.3535V110.257H98.4539V106.156Z" fill="white"/>
<path d="M102.555 44.6484H98.4551V48.7488H102.555V44.6484Z" fill="white"/>
<path d="M102.555 48.75H98.4551V52.8504H102.555V48.75Z" fill="white"/>
<path d="M102.555 52.8516H98.4551V56.9519H102.555V52.8516Z" fill="white"/>
<path d="M102.555 61.0508H98.4551V65.1512H102.555V61.0508Z" fill="white"/>
<path d="M102.555 65.1523H98.4551V69.2527H102.555V65.1523Z" fill="white"/>
<path d="M102.555 73.3516H98.4551V77.4519H102.555V73.3516Z" fill="white"/>
<path d="M102.555 89.7539H98.4551V93.8543H102.555V89.7539Z" fill="white"/>
<path d="M102.555 93.8555H98.4551V97.9559H102.555V93.8555Z" fill="white"/>
<path d="M102.555 97.9531H98.4551V102.054H102.555V97.9531Z" fill="white"/>
<path d="M102.555 102.055H98.4551V106.155H102.555V102.055Z" fill="white"/>
<path d="M102.555 106.156H98.4551V110.257H102.555V106.156Z" fill="white"/>
<path d="M106.655 40.5488H102.555V44.6492H106.655V40.5488Z" fill="white"/>
<path d="M106.655 52.8516H102.555V56.9519H106.655V52.8516Z" fill="white"/>
<path d="M106.655 56.9512H102.555V61.0516H106.655V56.9512Z" fill="white"/>
<path d="M106.655 77.4531H102.555V81.5535H106.655V77.4531Z" fill="white"/>
<path d="M106.655 85.6523H102.555V89.7527H106.655V85.6523Z" fill="white"/>
<path d="M106.655 89.7539H102.555V93.8543H106.655V89.7539Z" fill="white"/>
<path d="M106.655 97.9531H102.555V102.054H106.655V97.9531Z" fill="white"/>
<path d="M106.655 102.055H102.555V106.155H106.655V102.055Z" fill="white"/>
<path d="M106.655 106.156H102.555V110.257H106.655V106.156Z" fill="white"/>
<path d="M110.755 40.5488H106.654V44.6492H110.755V40.5488Z" fill="white"/>
<path d="M110.757 44.6484H106.656V48.7488H110.757V44.6484Z" fill="white"/>
<path d="M110.755 56.9512H106.654V61.0516H110.755V56.9512Z" fill="white"/>
<path d="M110.757 69.252H106.656V73.3523H110.757V69.252Z" fill="white"/>
<path d="M110.755 73.3516H106.654V77.4519H110.755V73.3516Z" fill="white"/>
<path d="M110.755 81.5527H106.654V85.6531H110.755V81.5527Z" fill="white"/>
<path d="M110.755 93.8555H106.654V97.9559H110.755V93.8555Z" fill="white"/>
<path d="M110.757 106.156H106.656V110.257H110.757V106.156Z" fill="white"/>
</mask>
<g mask="url(#mask0_76_13684)">
<path d="M110.756 7.74609H8.24609V110.256H110.756V7.74609Z" fill="black"/>
</g>
<mask id="mask1_76_13684" style="mask-type:luminance" maskUnits="userSpaceOnUse" x="8" y="7" width="29" height="30">
<path d="M12.3465 7.74609H8.24609V11.8465H12.3465V7.74609Z" fill="white"/>
<path d="M12.3465 11.8457H8.24609V15.9461H12.3465V11.8457Z" fill="white"/>
<path d="M12.3465 15.9473H8.24609V20.0477H12.3465V15.9473Z" fill="white"/>
<path d="M12.3465 20.0469H8.24609V24.1473H12.3465V20.0469Z" fill="white"/>
<path d="M12.3465 24.1484H8.24609V28.2488H12.3465V24.1484Z" fill="white"/>
<path d="M12.3465 28.248H8.24609V32.3484H12.3465V28.248Z" fill="white"/>
<path d="M12.3465 32.3477H8.24609V36.448H12.3465V32.3477Z" fill="white"/>
<path d="M16.4461 7.74609H12.3457V11.8465H16.4461V7.74609Z" fill="white"/>
<path d="M16.4461 32.3477H12.3457V36.448H16.4461V32.3477Z" fill="white"/>
<path d="M20.5477 7.74609H16.4473V11.8465H20.5477V7.74609Z" fill="white"/>
<path d="M20.5477 32.3477H16.4473V36.448H20.5477V32.3477Z" fill="white"/>
<path d="M24.6473 7.74609H20.5469V11.8465H24.6473V7.74609Z" fill="white"/>
<path d="M24.6473 32.3477H20.5469V36.448H24.6473V32.3477Z" fill="white"/>
<path d="M28.7488 7.74609H24.6484V11.8465H28.7488V7.74609Z" fill="white"/>
<path d="M28.7488 32.3477H24.6484V36.448H28.7488V32.3477Z" fill="white"/>
<path d="M32.8484 7.74609H28.748V11.8465H32.8484V7.74609Z" fill="white"/>
<path d="M32.8484 32.3477H28.748V36.448H32.8484V32.3477Z" fill="white"/>
<path d="M36.948 7.74609H32.8477V11.8465H36.948V7.74609Z" fill="white"/>
<path d="M36.948 11.8477H32.8477V15.948H36.948V11.8477Z" fill="white"/>
<path d="M36.95 15.9473H32.8496V20.0477H36.95V15.9473Z" fill="white"/>
<path d="M36.95 20.0469H32.8496V24.1473H36.95V20.0469Z" fill="white"/>
<path d="M36.948 24.1484H32.8477V28.2488H36.948V24.1484Z" fill="white"/>
<path d="M36.948 28.248H32.8477V32.3484H36.948V28.248Z" fill="white"/>
<path d="M36.948 32.3477H32.8477V36.448H36.948V32.3477Z" fill="white"/>
</mask>
<g mask="url(#mask1_76_13684)">
<path d="M36.9488 7.74609H8.24609V36.4488H36.9488V7.74609Z" fill="black"/>
</g>
<mask id="mask2_76_13684" style="mask-type:luminance" maskUnits="userSpaceOnUse" x="16" y="15" width="13" height="14">
<path d="M20.5477 15.9453H16.4473V20.0457H20.5477V15.9453Z" fill="white"/>
<path d="M20.5477 20.0449H16.4473V24.1453H20.5477V20.0449Z" fill="white"/>
<path d="M20.5477 24.1465H16.4473V28.2469H20.5477V24.1465Z" fill="white"/>
<path d="M24.6473 15.9453H20.5469V20.0457H24.6473V15.9453Z" fill="white"/>
<path d="M24.6473 20.0469H20.5469V24.1473H24.6473V20.0469Z" fill="white"/>
<path d="M24.6492 24.1465H20.5488V28.2469H24.6492V24.1465Z" fill="white"/>
<path d="M28.7488 15.9453H24.6484V20.0457H28.7488V15.9453Z" fill="white"/>
<path d="M28.7488 20.0469H24.6484V24.1473H28.7488V20.0469Z" fill="white"/>
<path d="M28.7488 24.1465H24.6484V28.2469H28.7488V24.1465Z" fill="white"/>
</mask>
<g mask="url(#mask2_76_13684)">
<path d="M28.7484 15.9453H16.4473V28.2465H28.7484V15.9453Z" fill="black"/>
</g>
<mask id="mask3_76_13684" style="mask-type:luminance" maskUnits="userSpaceOnUse" x="82" y="7" width="29" height="30">
<path d="M86.1531 7.74609H82.0527V11.8465H86.1531V7.74609Z" fill="white"/>
<path d="M86.1531 11.8457H82.0527V15.9461H86.1531V11.8457Z" fill="white"/>
<path d="M86.1531 15.9473H82.0527V20.0477H86.1531V15.9473Z" fill="white"/>
<path d="M86.1531 20.0469H82.0527V24.1473H86.1531V20.0469Z" fill="white"/>
<path d="M86.1531 24.1484H82.0527V28.2488H86.1531V24.1484Z" fill="white"/>
<path d="M86.1531 28.248H82.0527V32.3484H86.1531V28.248Z" fill="white"/>
<path d="M86.1531 32.3477H82.0527V36.448H86.1531V32.3477Z" fill="white"/>
<path d="M90.2527 7.74609H86.1523V11.8465H90.2527V7.74609Z" fill="white"/>
<path d="M90.2527 32.3477H86.1523V36.448H90.2527V32.3477Z" fill="white"/>
<path d="M94.3543 7.74609H90.2539V11.8465H94.3543V7.74609Z" fill="white"/>
<path d="M94.3543 32.3477H90.2539V36.448H94.3543V32.3477Z" fill="white"/>
<path d="M98.4539 7.74609H94.3535V11.8465H98.4539V7.74609Z" fill="white"/>
<path d="M98.4539 32.3477H94.3535V36.448H98.4539V32.3477Z" fill="white"/>
<path d="M102.555 7.74609H98.4551V11.8465H102.555V7.74609Z" fill="white"/>
<path d="M102.555 32.3477H98.4551V36.448H102.555V32.3477Z" fill="white"/>
<path d="M106.655 7.74609H102.555V11.8465H106.655V7.74609Z" fill="white"/>
<path d="M106.655 32.3477H102.555V36.448H106.655V32.3477Z" fill="white"/>
<path d="M110.755 7.74609H106.654V11.8465H110.755V7.74609Z" fill="white"/>
<path d="M110.755 11.8477H106.654V15.948H110.755V11.8477Z" fill="white"/>
<path d="M110.755 15.9473H106.654V20.0477H110.755V15.9473Z" fill="white"/>
<path d="M110.755 20.0469H106.654V24.1473H110.755V20.0469Z" fill="white"/>
<path d="M110.755 24.1484H106.654V28.2488H110.755V24.1484Z" fill="white"/>
<path d="M110.755 28.248H106.654V32.3484H110.755V28.248Z" fill="white"/>
<path d="M110.755 32.3477H106.654V36.448H110.755V32.3477Z" fill="white"/>
</mask>
<g mask="url(#mask3_76_13684)">
<path d="M110.755 7.74609H82.0527V36.4488H110.755V7.74609Z" fill="black"/>
</g>
<mask id="mask4_76_13684" style="mask-type:luminance" maskUnits="userSpaceOnUse" x="90" y="15" width="13" height="14">
<path d="M94.3523 15.9453H90.252V20.0457H94.3523V15.9453Z" fill="white"/>
<path d="M94.3523 20.0449H90.252V24.1453H94.3523V20.0449Z" fill="white"/>
<path d="M94.3523 24.1465H90.252V28.2469H94.3523V24.1465Z" fill="white"/>
<path d="M98.4519 15.9453H94.3516V20.0457H98.4519V15.9453Z" fill="white"/>
<path d="M98.4519 20.0469H94.3516V24.1473H98.4519V20.0469Z" fill="white"/>
<path d="M98.4539 24.1465H94.3535V28.2469H98.4539V24.1465Z" fill="white"/>
<path d="M102.554 15.9453H98.4531V20.0457H102.554V15.9453Z" fill="white"/>
<path d="M102.554 20.0469H98.4531V24.1473H102.554V20.0469Z" fill="white"/>
<path d="M102.554 24.1465H98.4531V28.2469H102.554V24.1465Z" fill="white"/>
</mask>
<g mask="url(#mask4_76_13684)">
<path d="M102.553 15.9453H90.252V28.2465H102.553V15.9453Z" fill="black"/>
</g>
<mask id="mask5_76_13684" style="mask-type:luminance" maskUnits="userSpaceOnUse" x="8" y="81" width="29" height="30">
<path d="M12.3445 81.5508H8.24414V85.6512H12.3445V81.5508Z" fill="white"/>
<path d="M12.3445 85.6504H8.24414V89.7508H12.3445V85.6504Z" fill="white"/>
<path d="M12.3445 89.752H8.24414V93.8523H12.3445V89.752Z" fill="white"/>
<path d="M12.3445 93.8516H8.24414V97.9519H12.3445V93.8516Z" fill="white"/>
<path d="M12.3445 97.9531H8.24414V102.054H12.3445V97.9531Z" fill="white"/>
<path d="M12.3445 102.053H8.24414V106.153H12.3445V102.053Z" fill="white"/>
<path d="M12.3445 106.152H8.24414V110.253H12.3445V106.152Z" fill="white"/>
<path d="M16.4441 81.5508H12.3438V85.6512H16.4441V81.5508Z" fill="white"/>
<path d="M16.4441 106.152H12.3438V110.253H16.4441V106.152Z" fill="white"/>
<path d="M20.5457 81.5508H16.4453V85.6512H20.5457V81.5508Z" fill="white"/>
<path d="M20.5457 106.152H16.4453V110.253H20.5457V106.152Z" fill="white"/>
<path d="M24.6453 81.5508H20.5449V85.6512H24.6453V81.5508Z" fill="white"/>
<path d="M24.6453 106.152H20.5449V110.253H24.6453V106.152Z" fill="white"/>
<path d="M28.7469 81.5508H24.6465V85.6512H28.7469V81.5508Z" fill="white"/>
<path d="M28.7469 106.152H24.6465V110.253H28.7469V106.152Z" fill="white"/>
<path d="M32.8465 81.5508H28.7461V85.6512H32.8465V81.5508Z" fill="white"/>
<path d="M32.8465 106.152H28.7461V110.253H32.8465V106.152Z" fill="white"/>
<path d="M36.9461 81.5508H32.8457V85.6512H36.9461V81.5508Z" fill="white"/>
<path d="M36.9461 85.6523H32.8457V89.7527H36.9461V85.6523Z" fill="white"/>
<path d="M36.9461 89.752H32.8457V93.8523H36.9461V89.752Z" fill="white"/>
<path d="M36.9461 93.8516H32.8457V97.9519H36.9461V93.8516Z" fill="white"/>
<path d="M36.9461 97.9531H32.8457V102.054H36.9461V97.9531Z" fill="white"/>
<path d="M36.9461 102.053H32.8457V106.153H36.9461V102.053Z" fill="white"/>
<path d="M36.9461 106.152H32.8457V110.253H36.9461V106.152Z" fill="white"/>
</mask>
<g mask="url(#mask5_76_13684)">
<path d="M36.9468 81.5508H8.24414V110.253H36.9468V81.5508Z" fill="black"/>
</g>
<mask id="mask6_76_13684" style="mask-type:luminance" maskUnits="userSpaceOnUse" x="16" y="89" width="13" height="14">
<path d="M20.5457 89.7539H16.4453V93.8543H20.5457V89.7539Z" fill="white"/>
<path d="M20.5457 93.8535H16.4453V97.9539H20.5457V93.8535Z" fill="white"/>
<path d="M20.5457 97.9551H16.4453V102.055H20.5457V97.9551Z" fill="white"/>
<path d="M24.6453 89.7539H20.5449V93.8543H24.6453V89.7539Z" fill="white"/>
<path d="M24.6453 93.8555H20.5449V97.9559H24.6453V93.8555Z" fill="white"/>
<path d="M24.6453 97.9551H20.5449V102.055H24.6453V97.9551Z" fill="white"/>
<path d="M28.7469 89.7539H24.6465V93.8543H28.7469V89.7539Z" fill="white"/>
<path d="M28.7469 93.8555H24.6465V97.9559H28.7469V93.8555Z" fill="white"/>
<path d="M28.7469 97.9551H24.6465V102.055H28.7469V97.9551Z" fill="white"/>
</mask>
<g mask="url(#mask6_76_13684)">
<path d="M28.7465 89.7539H16.4453V102.055H28.7465V89.7539Z" fill="black"/>
</g>
</g>
<path d="M16.34 135V126.36H19.91C19.994 126.36 20.102 126.364 20.234 126.372C20.366 126.376 20.488 126.388 20.6 126.408C21.1 126.484 21.512 126.65 21.836 126.906C22.164 127.162 22.406 127.486 22.562 127.878C22.722 128.266 22.802 128.698 22.802 129.174C22.802 129.646 22.722 130.078 22.562 130.47C22.402 130.858 22.158 131.18 21.83 131.436C21.506 131.692 21.096 131.858 20.6 131.934C20.488 131.95 20.364 131.962 20.228 131.97C20.096 131.978 19.99 131.982 19.91 131.982H17.786V135H16.34ZM17.786 130.632H19.85C19.93 130.632 20.02 130.628 20.12 130.62C20.22 130.612 20.312 130.596 20.396 130.572C20.636 130.512 20.824 130.406 20.96 130.254C21.1 130.102 21.198 129.93 21.254 129.738C21.314 129.546 21.344 129.358 21.344 129.174C21.344 128.99 21.314 128.802 21.254 128.61C21.198 128.414 21.1 128.24 20.96 128.088C20.824 127.936 20.636 127.83 20.396 127.77C20.312 127.746 20.22 127.732 20.12 127.728C20.02 127.72 19.93 127.716 19.85 127.716H17.786V130.632ZM24.1241 127.536V126.21H25.5701V127.536H24.1241ZM24.1241 135V128.52H25.5701V135H24.1241ZM31.8493 135V131.88C31.8493 131.676 31.8353 131.45 31.8073 131.202C31.7793 130.954 31.7133 130.716 31.6093 130.488C31.5093 130.256 31.3573 130.066 31.1533 129.918C30.9533 129.77 30.6813 129.696 30.3373 129.696C30.1533 129.696 29.9713 129.726 29.7913 129.786C29.6113 129.846 29.4473 129.95 29.2993 130.098C29.1553 130.242 29.0393 130.442 28.9513 130.698C28.8633 130.95 28.8193 131.274 28.8193 131.67L27.9613 131.304C27.9613 130.752 28.0673 130.252 28.2793 129.804C28.4953 129.356 28.8113 129 29.2273 128.736C29.6433 128.468 30.1553 128.334 30.7633 128.334C31.2433 128.334 31.6393 128.414 31.9513 128.574C32.2633 128.734 32.5113 128.938 32.6953 129.186C32.8793 129.434 33.0153 129.698 33.1033 129.978C33.1913 130.258 33.2473 130.524 33.2713 130.776C33.2993 131.024 33.3133 131.226 33.3133 131.382V135H31.8493ZM27.3553 135V128.52H28.6453V130.53H28.8193V135H27.3553ZM37.3716 135.18C36.7756 135.18 36.2556 135.03 35.8116 134.73C35.3676 134.43 35.0236 134.022 34.7796 133.506C34.5356 132.99 34.4136 132.408 34.4136 131.76C34.4136 131.104 34.5356 130.52 34.7796 130.008C35.0276 129.492 35.3776 129.086 35.8296 128.79C36.2816 128.49 36.8136 128.34 37.4256 128.34C38.0416 128.34 38.5576 128.49 38.9736 128.79C39.3936 129.086 39.7116 129.492 39.9276 130.008C40.1436 130.524 40.2516 131.108 40.2516 131.76C40.2516 132.404 40.1436 132.986 39.9276 133.506C39.7116 134.022 39.3896 134.43 38.9616 134.73C38.5336 135.03 38.0036 135.18 37.3716 135.18ZM37.5936 133.884C37.9816 133.884 38.2936 133.796 38.5296 133.62C38.7696 133.44 38.9436 133.19 39.0516 132.87C39.1636 132.55 39.2196 132.18 39.2196 131.76C39.2196 131.336 39.1636 130.966 39.0516 130.65C38.9436 130.33 38.7736 130.082 38.5416 129.906C38.3096 129.726 38.0096 129.636 37.6416 129.636C37.2536 129.636 36.9336 129.732 36.6816 129.924C36.4296 130.112 36.2436 130.368 36.1236 130.692C36.0036 131.012 35.9436 131.368 35.9436 131.76C35.9436 132.156 36.0016 132.516 36.1176 132.84C36.2376 133.16 36.4196 133.414 36.6636 133.602C36.9076 133.79 37.2176 133.884 37.5936 133.884ZM39.2196 135V130.452H39.0396V126.36H40.4976V135H39.2196ZM43.9918 135.18C43.5238 135.18 43.1278 135.092 42.8038 134.916C42.4798 134.736 42.2338 134.498 42.0658 134.202C41.9018 133.906 41.8198 133.58 41.8198 133.224C41.8198 132.912 41.8718 132.632 41.9758 132.384C42.0798 132.132 42.2398 131.916 42.4558 131.736C42.6718 131.552 42.9518 131.402 43.2958 131.286C43.5558 131.202 43.8598 131.126 44.2078 131.058C44.5598 130.99 44.9398 130.928 45.3478 130.872C45.7598 130.812 46.1898 130.748 46.6378 130.68L46.1218 130.974C46.1258 130.526 46.0258 130.196 45.8218 129.984C45.6178 129.772 45.2738 129.666 44.7898 129.666C44.4978 129.666 44.2158 129.734 43.9438 129.87C43.6718 130.006 43.4818 130.24 43.3738 130.572L42.0538 130.158C42.2138 129.61 42.5178 129.17 42.9658 128.838C43.4178 128.506 44.0258 128.34 44.7898 128.34C45.3658 128.34 45.8718 128.434 46.3078 128.622C46.7478 128.81 47.0738 129.118 47.2858 129.546C47.4018 129.774 47.4718 130.008 47.4958 130.248C47.5198 130.484 47.5318 130.742 47.5318 131.022V135H46.2658V133.596L46.4758 133.824C46.1838 134.292 45.8418 134.636 45.4498 134.856C45.0618 135.072 44.5758 135.18 43.9918 135.18ZM44.2798 134.028C44.6078 134.028 44.8878 133.97 45.1198 133.854C45.3518 133.738 45.5358 133.596 45.6718 133.428C45.8118 133.26 45.9058 133.102 45.9538 132.954C46.0298 132.77 46.0718 132.56 46.0798 132.324C46.0918 132.084 46.0978 131.89 46.0978 131.742L46.5418 131.874C46.1058 131.942 45.7318 132.002 45.4198 132.054C45.1078 132.106 44.8398 132.156 44.6158 132.204C44.3918 132.248 44.1938 132.298 44.0218 132.354C43.8538 132.414 43.7118 132.484 43.5958 132.564C43.4798 132.644 43.3898 132.736 43.3258 132.84C43.2658 132.944 43.2358 133.066 43.2358 133.206C43.2358 133.366 43.2758 133.508 43.3558 133.632C43.4358 133.752 43.5518 133.848 43.7038 133.92C43.8598 133.992 44.0518 134.028 44.2798 134.028ZM49.2139 127.536V126.21H50.6599V127.536H49.2139ZM49.2139 135V128.52H50.6599V135H49.2139ZM54.8595 135V126.36H56.3055V130.368L59.7555 126.36H61.5315L57.8175 130.596L61.7835 135H59.9475L56.3055 130.968V135H54.8595ZM65.0106 135.18C64.3626 135.18 63.7966 135.034 63.3126 134.742C62.8286 134.45 62.4526 134.048 62.1846 133.536C61.9206 133.02 61.7886 132.428 61.7886 131.76C61.7886 131.08 61.9246 130.484 62.1966 129.972C62.4686 129.46 62.8466 129.06 63.3306 128.772C63.8146 128.484 64.3746 128.34 65.0106 128.34C65.6626 128.34 66.2306 128.486 66.7146 128.778C67.1986 129.07 67.5746 129.474 67.8426 129.99C68.1106 130.502 68.2446 131.092 68.2446 131.76C68.2446 132.432 68.1086 133.026 67.8366 133.542C67.5686 134.054 67.1926 134.456 66.7086 134.748C66.2246 135.036 65.6586 135.18 65.0106 135.18ZM65.0106 133.824C65.5866 133.824 66.0146 133.632 66.2946 133.248C66.5746 132.864 66.7146 132.368 66.7146 131.76C66.7146 131.132 66.5726 130.632 66.2886 130.26C66.0046 129.884 65.5786 129.696 65.0106 129.696C64.6226 129.696 64.3026 129.784 64.0506 129.96C63.8026 130.132 63.6186 130.374 63.4986 130.686C63.3786 130.994 63.3186 131.352 63.3186 131.76C63.3186 132.388 63.4606 132.89 63.7446 133.266C64.0326 133.638 64.4546 133.824 65.0106 133.824ZM72.1646 135.18C71.5686 135.18 71.0486 135.03 70.6046 134.73C70.1606 134.43 69.8166 134.022 69.5726 133.506C69.3286 132.99 69.2066 132.408 69.2066 131.76C69.2066 131.104 69.3286 130.52 69.5726 130.008C69.8206 129.492 70.1706 129.086 70.6226 128.79C71.0746 128.49 71.6066 128.34 72.2186 128.34C72.8346 128.34 73.3506 128.49 73.7666 128.79C74.1866 129.086 74.5046 129.492 74.7206 130.008C74.9366 130.524 75.0446 131.108 75.0446 131.76C75.0446 132.404 74.9366 132.986 74.7206 133.506C74.5046 134.022 74.1826 134.43 73.7546 134.73C73.3266 135.03 72.7966 135.18 72.1646 135.18ZM72.3866 133.884C72.7746 133.884 73.0866 133.796 73.3226 133.62C73.5626 133.44 73.7366 133.19 73.8446 132.87C73.9566 132.55 74.0126 132.18 74.0126 131.76C74.0126 131.336 73.9566 130.966 73.8446 130.65C73.7366 130.33 73.5666 130.082 73.3346 129.906C73.1026 129.726 72.8026 129.636 72.4346 129.636C72.0466 129.636 71.7266 129.732 71.4746 129.924C71.2226 130.112 71.0366 130.368 70.9166 130.692C70.7966 131.012 70.7366 131.368 70.7366 131.76C70.7366 132.156 70.7946 132.516 70.9106 132.84C71.0306 133.16 71.2126 133.414 71.4566 133.602C71.7006 133.79 72.0106 133.884 72.3866 133.884ZM74.0126 135V130.452H73.8326V126.36H75.2906V135H74.0126ZM79.9188 135.18C79.2628 135.18 78.6868 135.038 78.1908 134.754C77.6948 134.47 77.3068 134.076 77.0268 133.572C76.7508 133.068 76.6128 132.488 76.6128 131.832C76.6128 131.124 76.7488 130.51 77.0208 129.99C77.2928 129.466 77.6708 129.06 78.1548 128.772C78.6388 128.484 79.1988 128.34 79.8348 128.34C80.5068 128.34 81.0768 128.498 81.5448 128.814C82.0168 129.126 82.3668 129.568 82.5948 130.14C82.8228 130.712 82.9088 131.386 82.8528 132.162H81.4188V131.634C81.4148 130.93 81.2908 130.416 81.0468 130.092C80.8028 129.768 80.4188 129.606 79.8948 129.606C79.3028 129.606 78.8628 129.79 78.5748 130.158C78.2868 130.522 78.1428 131.056 78.1428 131.76C78.1428 132.416 78.2868 132.924 78.5748 133.284C78.8628 133.644 79.2828 133.824 79.8348 133.824C80.1908 133.824 80.4968 133.746 80.7528 133.59C81.0128 133.43 81.2128 133.2 81.3528 132.9L82.7808 133.332C82.5328 133.916 82.1488 134.37 81.6288 134.694C81.1128 135.018 80.5428 135.18 79.9188 135.18ZM77.6868 132.162V131.07H82.1448V132.162H77.6868ZM93.3559 135.18L90.8899 132.726L91.7959 131.82L94.2499 134.274L93.3559 135.18ZM90.2479 135.18C89.3839 135.18 88.6439 134.992 88.0279 134.616C87.4119 134.236 86.9379 133.708 86.6059 133.032C86.2779 132.356 86.1139 131.572 86.1139 130.68C86.1139 129.788 86.2779 129.004 86.6059 128.328C86.9379 127.652 87.4119 127.126 88.0279 126.75C88.6439 126.37 89.3839 126.18 90.2479 126.18C91.1119 126.18 91.8519 126.37 92.4679 126.75C93.0879 127.126 93.5619 127.652 93.8899 128.328C94.2219 129.004 94.3879 129.788 94.3879 130.68C94.3879 131.572 94.2219 132.356 93.8899 133.032C93.5619 133.708 93.0879 134.236 92.4679 134.616C91.8519 134.992 91.1119 135.18 90.2479 135.18ZM90.2479 133.818C90.8279 133.822 91.3099 133.694 91.6939 133.434C92.0819 133.174 92.3719 132.808 92.5639 132.336C92.7599 131.864 92.8579 131.312 92.8579 130.68C92.8579 130.048 92.7599 129.5 92.5639 129.036C92.3719 128.568 92.0819 128.204 91.6939 127.944C91.3099 127.684 90.8279 127.55 90.2479 127.542C89.6679 127.538 89.1859 127.666 88.8019 127.926C88.4179 128.186 88.1279 128.552 87.9319 129.024C87.7399 129.496 87.6439 130.048 87.6439 130.68C87.6439 131.312 87.7399 131.862 87.9319 132.33C88.1239 132.794 88.4119 133.156 88.7959 133.416C89.1839 133.676 89.6679 133.81 90.2479 133.818ZM95.5822 135V126.36H99.1522C99.2362 126.36 99.3442 126.364 99.4762 126.372C99.6082 126.376 99.7302 126.388 99.8422 126.408C100.342 126.484 100.754 126.65 101.078 126.906C101.406 127.162 101.648 127.486 101.804 127.878C101.964 128.266 102.044 128.698 102.044 129.174C102.044 129.878 101.866 130.484 101.51 130.992C101.154 131.496 100.608 131.808 99.8722 131.928L99.2542 131.982H97.0282V135H95.5822ZM100.544 135L98.8402 131.484L100.31 131.16L102.182 135H100.544ZM97.0282 130.632H99.0922C99.1722 130.632 99.2622 130.628 99.3622 130.62C99.4622 130.612 99.5542 130.596 99.6382 130.572C99.8782 130.512 100.066 130.406 100.202 130.254C100.342 130.102 100.44 129.93 100.496 129.738C100.556 129.546 100.586 129.358 100.586 129.174C100.586 128.99 100.556 128.802 100.496 128.61C100.44 128.414 100.342 128.24 100.202 128.088C100.066 127.936 99.8782 127.83 99.6382 127.77C99.5542 127.746 99.4622 127.732 99.3622 127.728C99.2622 127.72 99.1722 127.716 99.0922 127.716H97.0282V130.632Z" fill="#6C6C6C"/>
<defs>
<clipPath id="clip0_76_13684">
<rect width="103" height="110" fill="white" transform="translate(8 8)"/>
</clipPath>
</defs>
</svg>
