<svg width="16" height="16" viewBox="0 0 16 16" fill="none" xmlns="http://www.w3.org/2000/svg">
<g clip-path="url(#clip0_248_1574)">
<path d="M13.9954 7.76409C13.9495 6.59757 13.5643 5.46979 12.8869 4.51893C12.2096 3.56808 11.2696 2.83548 10.1822 2.41089C9.0947 1.98631 7.90698 1.88819 6.76458 2.12857C5.62218 2.36894 4.57471 2.93737 3.75055 3.76419C2.92639 4.591 2.36133 5.64029 2.12463 6.78346C1.88793 7.92663 1.98986 9.11402 2.41794 10.2001C2.84601 11.2862 3.58164 12.2239 4.53466 12.8981C5.48768 13.5724 6.6167 13.9539 7.78336 13.9961M8.00003 4.66806V8.00139L8.6667 8.66806M13.4667 13.4668L14.6667 14.6668M10 12.0001C10 12.5305 10.2107 13.0392 10.5858 13.4143C10.9609 13.7894 11.4696 14.0001 12 14.0001C12.5305 14.0001 13.0392 13.7894 13.4142 13.4143C13.7893 13.0392 14 12.5305 14 12.0001C14 11.4697 13.7893 10.9609 13.4142 10.5859C13.0392 10.2108 12.5305 10.0001 12 10.0001C11.4696 10.0001 10.9609 10.2108 10.5858 10.5859C10.2107 10.9609 10 11.4697 10 12.0001Z" stroke="#6C6C6C" stroke-width="1.3" stroke-linecap="round" stroke-linejoin="round"/>
</g>
<defs>
<clipPath id="clip0_248_1574">
<rect width="16" height="16" fill="white"/>
</clipPath>
</defs>
</svg>
